<svg id="SvgjsSvg1020" width="288" height="288" xmlns="http://www.w3.org/2000/svg" version="1.1" xmlns:xlink="http://www.w3.org/1999/xlink" xmlns:svgjs="http://svgjs.com/svgjs"><defs id="SvgjsDefs1021"></defs><g id="SvgjsG1022"><svg xmlns="http://www.w3.org/2000/svg" viewBox="0 0 32 32" width="288" height="288"><path d="M25,2H16V4h9a1,1,0,0,1,1,1V27a1,1,0,0,1-1,1H16v2h9a3,3,0,0,0,3-3V5A3,3,0,0,0,25,2Z" fill="#ffffff" class="color000 svgShape"></path><path d="M21.58,17V15H7l4-4L9.58,9.55l-5,5a2,2,0,0,0,0,2.83l5,5L11,21,7,17Z" fill="#ffffff" class="color000 svgShape"></path></svg></g></svg>